<svg xmlns="http://www.w3.org/2000/svg" xmlns:xlink="http://www.w3.org/1999/xlink" viewBox="0 0 121.71 115.85"><defs><style>.cls-1{fill:#93278f;}.cls-1,.cls-2,.cls-3,.cls-4,.cls-5,.cls-6{stroke:#000;stroke-linejoin:round;stroke-width:2px;}.cls-2{fill:url(#linear-gradient);}.cls-3{fill:url(#linear-gradient-2);}.cls-4{fill:url(#linear-gradient-3);}.cls-5{fill:url(#linear-gradient-4);}.cls-6{fill:url(#linear-gradient-5);}</style><linearGradient id="linear-gradient" x1="6.73" y1="42.41" x2="119.1" y2="42.41" gradientUnits="userSpaceOnUse"><stop offset="0"/><stop offset="0.3" stop-color="#fff"/><stop offset="0.58"/><stop offset="1" stop-color="#fff"/></linearGradient><linearGradient id="linear-gradient-2" x1="414.05" y1="-21.08" x2="526.42" y2="-21.08" gradientTransform="translate(-81.38 506.98) rotate(-72)" xlink:href="#linear-gradient"/><linearGradient id="linear-gradient-3" x1="600.3" y1="346.68" x2="712.68" y2="346.68" gradientTransform="matrix(-0.81, -0.59, 0.59, -0.81, 375.64, 741.05)" xlink:href="#linear-gradient"/><linearGradient id="linear-gradient-4" x1="308.09" y1="637.47" x2="420.46" y2="637.47" gradientTransform="matrix(-0.81, 0.59, -0.59, -0.81, 739.48, 378.72)" xlink:href="#linear-gradient"/><linearGradient id="linear-gradient-5" x1="-58.76" y1="449.41" x2="53.61" y2="449.41" gradientTransform="translate(507.32 -79.27) rotate(72)" xlink:href="#linear-gradient"/></defs><g id="Layer_2" data-name="Layer 2"><g id="Layer_5" data-name="Layer 5"><polygon class="cls-1" points="80.71 33.6 86.44 51.22 67.91 51.22 62.18 33.6 80.71 33.6"/><path class="cls-2" d="M62.18,33.6l5.73,17.62H31L6.73,33.6Zm52.8,0H80.71l5.73,17.62h34.27Z"/><path class="cls-3" d="M35.27,51.22H53.8L42.39,86.34,18.14,104ZM51.59,1,41,33.6H59.53L70.12,1Z"/><path class="cls-4" d="M43.72,82.26l5.72-17.63L79.32,86.34l9.26,28.51ZM1,51.22,28.73,71.36l5.72-17.62L6.73,33.6Z"/><path class="cls-5" d="M75.85,83.82l-15-10.9,29.88-21.7h30Zm-42.72,31L60.86,94.71l-15-10.9L18.14,104Z"/><path class="cls-6" d="M87.26,53.74l-15,10.89L60.86,29.51,70.12,1ZM103.57,104,93,71.36,78,82.26l10.59,32.59Z"/></g></g></svg>